<mxfile host="app.diagrams.net" modified="2023-12-03T21:30:22.534Z" agent="Mozilla/5.0 (Windows NT 10.0; Win64; x64) AppleWebKit/537.36 (KHTML, like Gecko) Chrome/119.0.0.0 Safari/537.36 Edg/119.0.0.0" etag="IGSvF8-aIa-YsDnwLHN-" version="22.1.5" type="device" pages="2">
  <diagram name="Страница — 1" id="o3sYmgAIau1fM3dsohi6">
    <mxGraphModel dx="1624" dy="840" grid="1" gridSize="10" guides="1" tooltips="1" connect="1" arrows="1" fold="1" page="1" pageScale="1" pageWidth="3300" pageHeight="2339" math="0" shadow="0">
      <root>
        <mxCell id="0" />
        <mxCell id="1" parent="0" />
        <mxCell id="0foSG4I520p3zmjoovhV-5" style="edgeStyle=orthogonalEdgeStyle;rounded=0;orthogonalLoop=1;jettySize=auto;html=1;exitX=0;exitY=0.25;exitDx=0;exitDy=0;entryX=0;entryY=0.25;entryDx=0;entryDy=0;" parent="1" target="0foSG4I520p3zmjoovhV-1" edge="1">
          <mxGeometry relative="1" as="geometry">
            <mxPoint x="410" y="718.7692307692307" as="sourcePoint" />
          </mxGeometry>
        </mxCell>
        <mxCell id="WYAKC0gn2XXZuo2VXs9e-6" style="edgeStyle=orthogonalEdgeStyle;rounded=0;orthogonalLoop=1;jettySize=auto;html=1;exitX=1;exitY=0.25;exitDx=0;exitDy=0;entryX=0;entryY=0.25;entryDx=0;entryDy=0;" parent="1" source="0foSG4I520p3zmjoovhV-1" target="0foSG4I520p3zmjoovhV-4" edge="1">
          <mxGeometry relative="1" as="geometry">
            <Array as="points">
              <mxPoint x="720" y="711" />
              <mxPoint x="995" y="711" />
            </Array>
          </mxGeometry>
        </mxCell>
        <mxCell id="0foSG4I520p3zmjoovhV-1" value="&lt;span style=&quot;font-size: 14px;&quot;&gt;Журналирование&amp;nbsp;&lt;br&gt;бронирований&lt;/span&gt;" style="html=1;align=center;verticalAlign=top;rounded=1;absoluteArcSize=1;arcSize=10;dashed=0;whiteSpace=wrap;" parent="1" vertex="1">
          <mxGeometry x="540" y="704" width="180" height="60" as="geometry" />
        </mxCell>
        <mxCell id="0foSG4I520p3zmjoovhV-24" style="edgeStyle=orthogonalEdgeStyle;rounded=0;orthogonalLoop=1;jettySize=auto;html=1;exitX=0;exitY=0.25;exitDx=0;exitDy=0;entryX=0;entryY=0.25;entryDx=0;entryDy=0;" parent="1" target="0foSG4I520p3zmjoovhV-2" edge="1">
          <mxGeometry relative="1" as="geometry">
            <mxPoint x="600" y="824.4347826086957" as="sourcePoint" />
          </mxGeometry>
        </mxCell>
        <mxCell id="WYAKC0gn2XXZuo2VXs9e-3" style="edgeStyle=orthogonalEdgeStyle;rounded=0;orthogonalLoop=1;jettySize=auto;html=1;exitX=0.25;exitY=1;exitDx=0;exitDy=0;entryX=0.25;entryY=1;entryDx=0;entryDy=0;" parent="1" target="0foSG4I520p3zmjoovhV-2" edge="1">
          <mxGeometry relative="1" as="geometry">
            <mxPoint x="740" y="1099.9999999999998" as="sourcePoint" />
          </mxGeometry>
        </mxCell>
        <mxCell id="0foSG4I520p3zmjoovhV-2" value="&lt;span style=&quot;font-size: 14px;&quot;&gt;Журналирование выполненных задач поваров&amp;nbsp;и горничных&lt;/span&gt;" style="html=1;align=center;verticalAlign=top;rounded=1;absoluteArcSize=1;arcSize=10;dashed=0;whiteSpace=wrap;" parent="1" vertex="1">
          <mxGeometry x="690" y="804" width="200" height="80" as="geometry" />
        </mxCell>
        <mxCell id="0foSG4I520p3zmjoovhV-28" style="edgeStyle=orthogonalEdgeStyle;rounded=0;orthogonalLoop=1;jettySize=auto;html=1;entryX=0;entryY=0.25;entryDx=0;entryDy=0;" parent="1" target="0foSG4I520p3zmjoovhV-3" edge="1">
          <mxGeometry relative="1" as="geometry">
            <mxPoint x="760" y="929" as="sourcePoint" />
          </mxGeometry>
        </mxCell>
        <mxCell id="WYAKC0gn2XXZuo2VXs9e-4" style="edgeStyle=orthogonalEdgeStyle;rounded=0;orthogonalLoop=1;jettySize=auto;html=1;exitX=0.5;exitY=1;exitDx=0;exitDy=0;entryX=0.5;entryY=1;entryDx=0;entryDy=0;" parent="1" target="0foSG4I520p3zmjoovhV-3" edge="1">
          <mxGeometry relative="1" as="geometry">
            <mxPoint x="980" y="1099.9999999999998" as="sourcePoint" />
          </mxGeometry>
        </mxCell>
        <mxCell id="0foSG4I520p3zmjoovhV-3" value="&lt;span style=&quot;font-size: 14px;&quot;&gt;Журналирование заказов расходных материалов&lt;br&gt;&lt;/span&gt;" style="html=1;align=center;verticalAlign=top;rounded=1;absoluteArcSize=1;arcSize=10;dashed=0;whiteSpace=wrap;" parent="1" vertex="1">
          <mxGeometry x="890" y="914" width="180" height="60" as="geometry" />
        </mxCell>
        <mxCell id="WYAKC0gn2XXZuo2VXs9e-21" style="edgeStyle=orthogonalEdgeStyle;rounded=0;orthogonalLoop=1;jettySize=auto;html=1;exitX=0.75;exitY=1;exitDx=0;exitDy=0;entryX=0.75;entryY=1;entryDx=0;entryDy=0;" parent="1" target="0foSG4I520p3zmjoovhV-4" edge="1">
          <mxGeometry relative="1" as="geometry">
            <mxPoint x="1427.8333333333335" y="960" as="sourcePoint" />
          </mxGeometry>
        </mxCell>
        <mxCell id="WYAKC0gn2XXZuo2VXs9e-23" style="edgeStyle=orthogonalEdgeStyle;rounded=0;orthogonalLoop=1;jettySize=auto;html=1;exitX=1;exitY=0.5;exitDx=0;exitDy=0;" parent="1" source="0foSG4I520p3zmjoovhV-4" edge="1">
          <mxGeometry relative="1" as="geometry">
            <mxPoint x="1610" y="734.1666666666667" as="targetPoint" />
          </mxGeometry>
        </mxCell>
        <mxCell id="0foSG4I520p3zmjoovhV-4" value="&lt;span style=&quot;font-size: 14px;&quot;&gt;&lt;br&gt;Экспорт системного&amp;nbsp;журнала&lt;/span&gt;" style="html=1;align=center;verticalAlign=top;rounded=1;absoluteArcSize=1;arcSize=10;dashed=0;whiteSpace=wrap;" parent="1" vertex="1">
          <mxGeometry x="1270" y="687.25" width="210" height="93.5" as="geometry" />
        </mxCell>
        <mxCell id="0foSG4I520p3zmjoovhV-6" value="&lt;font style=&quot;font-size: 10px;&quot;&gt;Данные о&lt;br&gt;бронированиях&lt;br&gt;&lt;/font&gt;" style="text;html=1;strokeColor=none;fillColor=none;align=center;verticalAlign=middle;whiteSpace=wrap;rounded=0;rotation=0;" parent="1" vertex="1">
          <mxGeometry x="420" y="709" width="110" height="15" as="geometry" />
        </mxCell>
        <mxCell id="0foSG4I520p3zmjoovhV-17" value="&lt;font style=&quot;font-size: 10px;&quot;&gt;Журнал бронирований&lt;br&gt;&lt;/font&gt;" style="text;html=1;strokeColor=none;fillColor=none;align=center;verticalAlign=middle;whiteSpace=wrap;rounded=0;rotation=0;" parent="1" vertex="1">
          <mxGeometry x="800" y="694" width="110" height="15" as="geometry" />
        </mxCell>
        <mxCell id="0foSG4I520p3zmjoovhV-19" value="&lt;font style=&quot;font-size: 10px;&quot;&gt;Журнал выполнения задач персонала&lt;br&gt;&lt;/font&gt;" style="text;html=1;strokeColor=none;fillColor=none;align=center;verticalAlign=middle;whiteSpace=wrap;rounded=0;rotation=0;" parent="1" vertex="1">
          <mxGeometry x="920" y="804" width="110" height="15" as="geometry" />
        </mxCell>
        <mxCell id="0foSG4I520p3zmjoovhV-23" value="&lt;font style=&quot;font-size: 10px;&quot;&gt;Журнал заказов расходных материалов&lt;br&gt;&lt;/font&gt;" style="text;html=1;strokeColor=none;fillColor=none;align=center;verticalAlign=middle;whiteSpace=wrap;rounded=0;rotation=-90;" parent="1" vertex="1">
          <mxGeometry x="1107" y="826.5" width="120" height="20" as="geometry" />
        </mxCell>
        <mxCell id="0foSG4I520p3zmjoovhV-26" value="&lt;font style=&quot;font-size: 10px;&quot;&gt;Список задач&lt;br&gt;персонала&lt;br&gt;&lt;/font&gt;" style="text;html=1;strokeColor=none;fillColor=none;align=center;verticalAlign=middle;whiteSpace=wrap;rounded=0;rotation=0;" parent="1" vertex="1">
          <mxGeometry x="590" y="819" width="110" height="15" as="geometry" />
        </mxCell>
        <mxCell id="0foSG4I520p3zmjoovhV-29" value="&lt;font style=&quot;font-size: 10px;&quot;&gt;Данные о заказе расходных материалов&lt;br&gt;&lt;/font&gt;" style="text;html=1;strokeColor=none;fillColor=none;align=center;verticalAlign=middle;whiteSpace=wrap;rounded=0;rotation=0;" parent="1" vertex="1">
          <mxGeometry x="760" y="922" width="120" height="15" as="geometry" />
        </mxCell>
        <mxCell id="0foSG4I520p3zmjoovhV-41" value="61" style="text;html=1;strokeColor=none;fillColor=none;align=center;verticalAlign=middle;whiteSpace=wrap;rounded=0;" parent="1" vertex="1">
          <mxGeometry x="700" y="739" width="10" height="30" as="geometry" />
        </mxCell>
        <mxCell id="0foSG4I520p3zmjoovhV-42" value="63" style="text;html=1;strokeColor=none;fillColor=none;align=center;verticalAlign=middle;whiteSpace=wrap;rounded=0;" parent="1" vertex="1">
          <mxGeometry x="1050" y="950" width="10" height="30" as="geometry" />
        </mxCell>
        <mxCell id="0foSG4I520p3zmjoovhV-43" value="62" style="text;html=1;strokeColor=none;fillColor=none;align=center;verticalAlign=middle;whiteSpace=wrap;rounded=0;" parent="1" vertex="1">
          <mxGeometry x="873.3" y="856.5" width="10" height="30" as="geometry" />
        </mxCell>
        <mxCell id="WYAKC0gn2XXZuo2VXs9e-5" style="edgeStyle=orthogonalEdgeStyle;rounded=0;orthogonalLoop=1;jettySize=auto;html=1;exitX=0.5;exitY=1;exitDx=0;exitDy=0;entryX=0.5;entryY=1;entryDx=0;entryDy=0;" parent="1" target="WYAKC0gn2XXZuo2VXs9e-1" edge="1">
          <mxGeometry relative="1" as="geometry">
            <mxPoint x="1210.344827586207" y="1099.9999999999998" as="sourcePoint" />
          </mxGeometry>
        </mxCell>
        <mxCell id="WYAKC0gn2XXZuo2VXs9e-12" style="edgeStyle=orthogonalEdgeStyle;rounded=0;orthogonalLoop=1;jettySize=auto;html=1;exitX=1;exitY=0.5;exitDx=0;exitDy=0;entryX=0;entryY=0.75;entryDx=0;entryDy=0;" parent="1" source="WYAKC0gn2XXZuo2VXs9e-1" target="0foSG4I520p3zmjoovhV-4" edge="1">
          <mxGeometry relative="1" as="geometry" />
        </mxCell>
        <mxCell id="WYAKC0gn2XXZuo2VXs9e-13" style="edgeStyle=orthogonalEdgeStyle;rounded=0;orthogonalLoop=1;jettySize=auto;html=1;exitX=0;exitY=0.25;exitDx=0;exitDy=0;entryX=0;entryY=0.25;entryDx=0;entryDy=0;" parent="1" target="WYAKC0gn2XXZuo2VXs9e-1" edge="1">
          <mxGeometry relative="1" as="geometry">
            <mxPoint x="1020" y="1005.1379310344828" as="sourcePoint" />
          </mxGeometry>
        </mxCell>
        <mxCell id="WYAKC0gn2XXZuo2VXs9e-1" value="&lt;span style=&quot;font-size: 14px;&quot;&gt;Журналирование работы системы безопасности&lt;br&gt;&lt;/span&gt;" style="html=1;align=center;verticalAlign=top;rounded=1;absoluteArcSize=1;arcSize=10;dashed=0;whiteSpace=wrap;" parent="1" vertex="1">
          <mxGeometry x="1120" y="990" width="180" height="60" as="geometry" />
        </mxCell>
        <mxCell id="WYAKC0gn2XXZuo2VXs9e-2" style="edgeStyle=orthogonalEdgeStyle;rounded=0;orthogonalLoop=1;jettySize=auto;html=1;exitX=0.5;exitY=1;exitDx=0;exitDy=0;entryX=0.08;entryY=0.988;entryDx=0;entryDy=0;entryPerimeter=0;startArrow=classic;startFill=1;" parent="1" source="0foSG4I520p3zmjoovhV-4" target="0foSG4I520p3zmjoovhV-1" edge="1">
          <mxGeometry relative="1" as="geometry">
            <Array as="points">
              <mxPoint x="1375" y="1100" />
              <mxPoint x="554" y="1100" />
            </Array>
          </mxGeometry>
        </mxCell>
        <mxCell id="WYAKC0gn2XXZuo2VXs9e-8" style="edgeStyle=orthogonalEdgeStyle;rounded=0;orthogonalLoop=1;jettySize=auto;html=1;exitX=1;exitY=0.25;exitDx=0;exitDy=0;entryX=0.002;entryY=0.412;entryDx=0;entryDy=0;entryPerimeter=0;" parent="1" source="0foSG4I520p3zmjoovhV-2" target="0foSG4I520p3zmjoovhV-4" edge="1">
          <mxGeometry relative="1" as="geometry" />
        </mxCell>
        <mxCell id="WYAKC0gn2XXZuo2VXs9e-10" style="edgeStyle=orthogonalEdgeStyle;rounded=0;orthogonalLoop=1;jettySize=auto;html=1;exitX=1;exitY=0.25;exitDx=0;exitDy=0;entryX=-0.001;entryY=0.6;entryDx=0;entryDy=0;entryPerimeter=0;" parent="1" source="0foSG4I520p3zmjoovhV-3" target="0foSG4I520p3zmjoovhV-4" edge="1">
          <mxGeometry relative="1" as="geometry" />
        </mxCell>
        <mxCell id="WYAKC0gn2XXZuo2VXs9e-14" value="&lt;font style=&quot;font-size: 10px;&quot;&gt;Данные о работе&lt;br&gt;системы безопасности&lt;br&gt;&lt;/font&gt;" style="text;html=1;strokeColor=none;fillColor=none;align=center;verticalAlign=middle;whiteSpace=wrap;rounded=0;rotation=0;" parent="1" vertex="1">
          <mxGeometry x="1000" y="997" width="120" height="15" as="geometry" />
        </mxCell>
        <mxCell id="WYAKC0gn2XXZuo2VXs9e-15" value="&lt;font style=&quot;font-size: 10px;&quot;&gt;Журнал безопасности&lt;br&gt;&lt;/font&gt;" style="text;html=1;strokeColor=none;fillColor=none;align=center;verticalAlign=middle;whiteSpace=wrap;rounded=0;rotation=-90;" parent="1" vertex="1">
          <mxGeometry x="1250" y="934" width="120" height="20" as="geometry" />
        </mxCell>
        <mxCell id="WYAKC0gn2XXZuo2VXs9e-16" value="65" style="text;html=1;strokeColor=none;fillColor=none;align=center;verticalAlign=middle;whiteSpace=wrap;rounded=0;" parent="1" vertex="1">
          <mxGeometry x="1460" y="750.75" width="10" height="30" as="geometry" />
        </mxCell>
        <mxCell id="0foSG4I520p3zmjoovhV-44" value="64" style="text;html=1;strokeColor=none;fillColor=none;align=center;verticalAlign=middle;whiteSpace=wrap;rounded=0;" parent="1" vertex="1">
          <mxGeometry x="1280" y="1030" width="10" height="30" as="geometry" />
        </mxCell>
        <mxCell id="WYAKC0gn2XXZuo2VXs9e-18" value="&lt;font style=&quot;font-size: 10px;&quot;&gt;Система&lt;br&gt;&lt;/font&gt;" style="text;html=1;strokeColor=none;fillColor=none;align=center;verticalAlign=middle;whiteSpace=wrap;rounded=0;rotation=0;" parent="1" vertex="1">
          <mxGeometry x="823.3" y="1080" width="110" height="15" as="geometry" />
        </mxCell>
        <mxCell id="WYAKC0gn2XXZuo2VXs9e-19" value="" style="endArrow=classic;html=1;rounded=0;" parent="1" edge="1">
          <mxGeometry width="50" height="50" relative="1" as="geometry">
            <mxPoint x="1030" y="690" as="sourcePoint" />
            <mxPoint x="1270" y="693.998695652174" as="targetPoint" />
            <Array as="points" />
          </mxGeometry>
        </mxCell>
        <mxCell id="WYAKC0gn2XXZuo2VXs9e-20" value="&lt;font style=&quot;font-size: 10px;&quot;&gt;Идентификатор системного администратора&lt;br&gt;&lt;/font&gt;" style="text;html=1;strokeColor=none;fillColor=none;align=center;verticalAlign=middle;whiteSpace=wrap;rounded=0;rotation=0;" parent="1" vertex="1">
          <mxGeometry x="1067" y="672.25" width="160" height="15" as="geometry" />
        </mxCell>
        <mxCell id="WYAKC0gn2XXZuo2VXs9e-22" value="&lt;font style=&quot;font-size: 10px;&quot;&gt;Системный&lt;br&gt;администратор&lt;br&gt;&lt;/font&gt;" style="text;html=1;strokeColor=none;fillColor=none;align=center;verticalAlign=middle;whiteSpace=wrap;rounded=0;rotation=-90;" parent="1" vertex="1">
          <mxGeometry x="1367" y="870" width="120" height="20" as="geometry" />
        </mxCell>
        <mxCell id="WYAKC0gn2XXZuo2VXs9e-24" value="&lt;font style=&quot;font-size: 10px;&quot;&gt;Журнал работы системы&lt;br&gt;&lt;/font&gt;" style="text;html=1;strokeColor=none;fillColor=none;align=center;verticalAlign=middle;whiteSpace=wrap;rounded=0;rotation=0;" parent="1" vertex="1">
          <mxGeometry x="1487" y="726.5" width="110" height="15" as="geometry" />
        </mxCell>
      </root>
    </mxGraphModel>
  </diagram>
  <diagram id="30CSTh-y9SVbLgZfz-_A" name="Страница — 2">
    <mxGraphModel dx="5413" dy="2800" grid="1" gridSize="10" guides="1" tooltips="1" connect="1" arrows="1" fold="1" page="1" pageScale="1" pageWidth="3300" pageHeight="2339" math="0" shadow="0">
      <root>
        <mxCell id="0" />
        <mxCell id="1" parent="0" />
      </root>
    </mxGraphModel>
  </diagram>
</mxfile>
